REM DIRINDEX 1\2,1\3,1\4
REM DIRNAME cjc151,folder01,folder02,folder03
TITLE ""
FILE "062 062_Lesson 4_TOEFL_3900.mp3" MP3
  TRACK 01 AUDIO
    TITLE "4:cjc151_2675"
    INDEX 01 00:00:00
  TRACK 02 AUDIO
    TITLE "0:"
    INDEX 01 00:01:44
  TRACK 03 AUDIO
    TITLE "2:cjc151_2676"
    INDEX 01 00:02:24
  TRACK 04 AUDIO
    TITLE "0:"
    INDEX 01 00:03:47
  TRACK 05 AUDIO
    TITLE "3:cjc151_2677"
    INDEX 01 00:05:24
  TRACK 06 AUDIO
    TITLE "0:"
    INDEX 01 00:08:64
  TRACK 07 AUDIO
    TITLE "2:cjc151_2678"
    INDEX 01 00:10:41
  TRACK 08 AUDIO
    TITLE "0:"
    INDEX 01 00:11:64
  TRACK 09 AUDIO
    TITLE "3:cjc151_2679"
    INDEX 01 00:13:43
  TRACK 10 AUDIO
    TITLE "0:"
    INDEX 01 00:17:59
  TRACK 11 AUDIO
    TITLE "2:cjc151_2680"
    INDEX 01 00:19:38
  TRACK 12 AUDIO
    TITLE "0:"
    INDEX 01 00:20:41
  TRACK 13 AUDIO
    TITLE "3:cjc151_2681"
    INDEX 01 00:22:21
  TRACK 14 AUDIO
    TITLE "0:"
    INDEX 01 00:25:74
  TRACK 15 AUDIO
    TITLE "2:cjc151_2682"
    INDEX 01 00:27:49
  TRACK 16 AUDIO
    TITLE "0:"
    INDEX 01 00:28:66
  TRACK 17 AUDIO
    TITLE "3:cjc151_2683"
    INDEX 01 00:30:46
  TRACK 18 AUDIO
    TITLE "0:"
    INDEX 01 00:35:15
  TRACK 19 AUDIO
    TITLE "2:cjc151_2684"
    INDEX 01 00:36:68
  TRACK 20 AUDIO
    TITLE "0:"
    INDEX 01 00:37:65
  TRACK 21 AUDIO
    TITLE "3:cjc151_2685"
    INDEX 01 00:39:45
  TRACK 22 AUDIO
    TITLE "0:"
    INDEX 01 00:44:16
  TRACK 23 AUDIO
    TITLE "2:cjc151_2686"
    INDEX 01 00:45:71
  TRACK 24 AUDIO
    TITLE "0:"
    INDEX 01 00:46:72
  TRACK 25 AUDIO
    TITLE "3:cjc151_2687"
    INDEX 01 00:48:49
  TRACK 26 AUDIO
    TITLE "0:"
    INDEX 01 00:52:22
  TRACK 27 AUDIO
    TITLE "2:cjc151_2688"
    INDEX 01 00:54:01
  TRACK 28 AUDIO
    TITLE "0:"
    INDEX 01 00:54:60
  TRACK 29 AUDIO
    TITLE "3:cjc151_2689"
    INDEX 01 00:56:41
  TRACK 30 AUDIO
    TITLE "0:"
    INDEX 01 00:59:73
  TRACK 31 AUDIO
    TITLE "2:cjc151_2690"
    INDEX 01 01:01:48
  TRACK 32 AUDIO
    TITLE "0:"
    INDEX 01 01:02:59
  TRACK 33 AUDIO
    TITLE "3:cjc151_2691"
    INDEX 01 01:04:37
  TRACK 34 AUDIO
    TITLE "0:"
    INDEX 01 01:08:21
  TRACK 35 AUDIO
    TITLE "2:cjc151_2692"
    INDEX 01 01:10:24
  TRACK 36 AUDIO
    TITLE "0:"
    INDEX 01 01:11:35
  TRACK 37 AUDIO
    TITLE "3:cjc151_2693"
    INDEX 01 01:13:12
  TRACK 38 AUDIO
    TITLE "0:"
    INDEX 01 01:17:32
  TRACK 39 AUDIO
    TITLE "2:cjc151_2694"
    INDEX 01 01:19:07
  TRACK 40 AUDIO
    TITLE "0:"
    INDEX 01 01:20:24
  TRACK 41 AUDIO
    TITLE "3:cjc151_2695"
    INDEX 01 01:22:03
  TRACK 42 AUDIO
    TITLE "0:"
    INDEX 01 01:26:11
  TRACK 43 AUDIO
    TITLE "2:cjc151_2696"
    INDEX 01 01:27:65
  TRACK 44 AUDIO
    TITLE "0:"
    INDEX 01 01:29:07
  TRACK 45 AUDIO
    TITLE "3:cjc151_2697"
    INDEX 01 01:30:60
  TRACK 46 AUDIO
    TITLE "0:"
    INDEX 01 01:34:05
  TRACK 47 AUDIO
    TITLE "2:cjc151_2698"
    INDEX 01 01:35:57
  TRACK 48 AUDIO
    TITLE "0:"
    INDEX 01 01:36:62
  TRACK 49 AUDIO
    TITLE "3:cjc151_2699"
    INDEX 01 01:38:42
  TRACK 50 AUDIO
    TITLE "0:"
    INDEX 01 01:42:57
  TRACK 51 AUDIO
    TITLE "2:cjc151_2700"
    INDEX 01 01:44:32
  TRACK 52 AUDIO
    TITLE "0:"
    INDEX 01 01:45:44
  TRACK 53 AUDIO
    TITLE "3:cjc151_2701"
    INDEX 01 01:47:17
  TRACK 54 AUDIO
    TITLE "0:"
    INDEX 01 01:50:74
  TRACK 55 AUDIO
    TITLE "2:cjc151_2702"
    INDEX 01 01:52:53
  TRACK 56 AUDIO
    TITLE "0:"
    INDEX 01 01:53:57
  TRACK 57 AUDIO
    TITLE "3:cjc151_2703"
    INDEX 01 01:55:36
  TRACK 58 AUDIO
    TITLE "0:"
    INDEX 01 01:59:63
  TRACK 59 AUDIO
    TITLE "2:cjc151_2704"
    INDEX 01 02:01:46
  TRACK 60 AUDIO
    TITLE "0:"
    INDEX 01 02:02:46
  TRACK 61 AUDIO
    TITLE "3:cjc151_2705"
    INDEX 01 02:04:25
  TRACK 62 AUDIO
    TITLE "0:"
    INDEX 01 02:07:69
  TRACK 63 AUDIO
    TITLE "2:cjc151_2706"
    INDEX 01 02:09:46
  TRACK 64 AUDIO
    TITLE "0:"
    INDEX 01 02:10:65
  TRACK 65 AUDIO
    TITLE "3:cjc151_2707"
    INDEX 01 02:12:42
  TRACK 66 AUDIO
    TITLE "0:"
    INDEX 01 02:16:36
  TRACK 67 AUDIO
    TITLE "2:cjc151_2708"
    INDEX 01 02:18:18
  TRACK 68 AUDIO
    TITLE "0:"
    INDEX 01 02:19:48
  TRACK 69 AUDIO
    TITLE "3:cjc151_2709"
    INDEX 01 02:21:26
  TRACK 70 AUDIO
    TITLE "0:"
    INDEX 01 02:25:35
  TRACK 71 AUDIO
    TITLE "2:cjc151_2710"
    INDEX 01 02:27:13
  TRACK 72 AUDIO
    TITLE "0:"
    INDEX 01 02:28:16
  TRACK 73 AUDIO
    TITLE "3:cjc151_2711"
    INDEX 01 02:29:66
  TRACK 74 AUDIO
    TITLE "0:"
    INDEX 01 02:33:13
  TRACK 75 AUDIO
    TITLE "2:cjc151_2712"
    INDEX 01 02:34:66
  TRACK 76 AUDIO
    TITLE "0:"
    INDEX 01 02:35:71
  TRACK 77 AUDIO
    TITLE "3:cjc151_2713"
    INDEX 01 02:37:50
  TRACK 78 AUDIO
    TITLE "0:"
    INDEX 01 02:41:68
  TRACK 79 AUDIO
    TITLE "2:cjc151_2714"
    INDEX 01 02:43:45
  TRACK 80 AUDIO
    TITLE "0:"
    INDEX 01 02:44:62
  TRACK 81 AUDIO
    TITLE "3:cjc151_2715"
    INDEX 01 02:46:39
  TRACK 82 AUDIO
    TITLE "0:"
    INDEX 01 02:50:18
  TRACK 83 AUDIO
    TITLE "2:cjc151_2716"
    INDEX 01 02:51:70
  TRACK 84 AUDIO
    TITLE "0:"
    INDEX 01 02:53:14
  TRACK 85 AUDIO
    TITLE "3:cjc151_2717"
    INDEX 01 02:54:68
  TRACK 86 AUDIO
    TITLE "0:"
    INDEX 01 02:58:11
  TRACK 87 AUDIO
    TITLE "2:cjc151_2718"
    INDEX 01 02:59:65
  TRACK 88 AUDIO
    TITLE "0:"
    INDEX 01 03:01:11
  TRACK 89 AUDIO
    TITLE "3:cjc151_2719"
    INDEX 01 03:02:60
  TRACK 90 AUDIO
    TITLE "0:"
    INDEX 01 03:07:20
